<?xml version="1.0" encoding="utf-8"?>
<!-- Generator: Adobe Illustrator 21.0.0, SVG Export Plug-In . SVG Version: 6.00 Build 0)  -->
<svg version="1.1" id="Layer_1" xmlns="http://www.w3.org/2000/svg" xmlns:xlink="http://www.w3.org/1999/xlink" x="0px" y="0px"
	 width="198.6px" height="54px" viewBox="0 0 198.6 54" style="enable-background:new 0 0 198.6 54;" xml:space="preserve">
<style type="text/css">
	.st0{fill:#222224;}
	.st1{fill:#2580C3;}
</style>
<g>
	<path class="st0" d="M64.4,26.9v19.3h-1.3v-3.2c-0.5,1.1-1.3,1.9-2.3,2.4c-1,0.6-2.1,0.9-3.3,0.9c-1.3,0-2.4-0.3-3.4-0.9
		c-1-0.6-1.8-1.4-2.4-2.4c-0.6-1-0.9-2.2-0.9-3.6c0-1.3,0.3-2.5,0.9-3.6c0.6-1.1,1.4-1.9,2.4-2.4c1-0.6,2.2-0.9,3.4-0.9
		c1.2,0,2.3,0.3,3.3,0.9c1,0.6,1.7,1.4,2.3,2.4v-8.9H64.4z M60.5,44.5c0.8-0.5,1.5-1.2,2-2c0.5-0.9,0.7-1.9,0.7-3s-0.2-2.1-0.7-3
		c-0.5-0.9-1.1-1.5-2-2c-0.8-0.5-1.8-0.7-2.8-0.7c-1,0-2,0.2-2.8,0.7c-0.8,0.5-1.5,1.2-2,2c-0.5,0.9-0.7,1.9-0.7,3s0.2,2.1,0.7,3
		c0.5,0.9,1.1,1.5,2,2c0.8,0.5,1.8,0.7,2.8,0.7C58.7,45.2,59.6,45,60.5,44.5z"/>
	<path class="st0" d="M79,39.8H67.3c0,1.1,0.3,2,0.8,2.8c0.5,0.8,1.2,1.5,2,1.9C71,45,72,45.2,73,45.2c0.9,0,1.7-0.2,2.5-0.5
		c0.8-0.3,1.4-0.8,1.9-1.4l0.8,0.9c-0.6,0.7-1.3,1.3-2.2,1.6C75,46.2,74,46.4,73,46.4c-1.4,0-2.6-0.3-3.6-0.9
		c-1.1-0.6-1.9-1.4-2.5-2.4c-0.6-1-0.9-2.2-0.9-3.6c0-1.3,0.3-2.5,0.8-3.6c0.6-1.1,1.3-1.9,2.3-2.5c1-0.6,2.1-0.9,3.3-0.9
		c1.2,0,2.3,0.3,3.3,0.9c1,0.6,1.8,1.4,2.3,2.4c0.6,1,0.8,2.2,0.8,3.5L79,39.8z M69.9,34.3c-0.8,0.4-1.4,1-1.8,1.8
		c-0.5,0.8-0.7,1.6-0.8,2.6h10.4c-0.1-1-0.3-1.8-0.8-2.6c-0.5-0.8-1.1-1.4-1.9-1.8c-0.8-0.4-1.6-0.7-2.6-0.7S70.7,33.9,69.9,34.3z"
		/>
	<path class="st0" d="M92.1,32.7L86,46.3h-1.3l-6.1-13.6h1.4l5.4,12.2l5.5-12.2H92.1z"/>
	<path class="st0" d="M104.5,39.8H92.8c0,1.1,0.3,2,0.8,2.8c0.5,0.8,1.2,1.5,2,1.9c0.9,0.5,1.8,0.7,2.9,0.7c0.9,0,1.7-0.2,2.5-0.5
		c0.8-0.3,1.4-0.8,1.9-1.4l0.8,0.9c-0.6,0.7-1.3,1.3-2.2,1.6c-0.9,0.4-1.9,0.6-2.9,0.6c-1.4,0-2.6-0.3-3.6-0.9
		c-1.1-0.6-1.9-1.4-2.5-2.4c-0.6-1-0.9-2.2-0.9-3.6c0-1.3,0.3-2.5,0.8-3.6c0.6-1.1,1.3-1.9,2.3-2.5c1-0.6,2.1-0.9,3.3-0.9
		c1.2,0,2.3,0.3,3.3,0.9c1,0.6,1.8,1.4,2.3,2.4c0.6,1,0.8,2.2,0.8,3.5L104.5,39.8z M95.5,34.3c-0.8,0.4-1.4,1-1.8,1.8
		c-0.5,0.8-0.7,1.6-0.8,2.6h10.4c-0.1-1-0.3-1.8-0.8-2.6c-0.5-0.8-1.1-1.4-1.9-1.8c-0.8-0.4-1.6-0.7-2.6-0.7
		C97.1,33.7,96.2,33.9,95.5,34.3z"/>
	<path class="st0" d="M106.1,26.9h1.3v19.3h-1.3V26.9z"/>
	<path class="st0" d="M112.3,45.5c-1-0.6-1.8-1.4-2.4-2.5c-0.6-1.1-0.9-2.2-0.9-3.6c0-1.3,0.3-2.5,0.9-3.6c0.6-1.1,1.4-1.9,2.4-2.5
		c1-0.6,2.2-0.9,3.5-0.9c1.3,0,2.4,0.3,3.5,0.9c1,0.6,1.8,1.4,2.4,2.5c0.6,1.1,0.9,2.2,0.9,3.6c0,1.3-0.3,2.5-0.9,3.6
		c-0.6,1.1-1.4,1.9-2.4,2.5c-1,0.6-2.2,0.9-3.5,0.9C114.5,46.4,113.4,46.1,112.3,45.5z M118.6,44.5c0.8-0.5,1.5-1.2,2-2
		c0.5-0.9,0.7-1.9,0.7-3s-0.2-2.1-0.7-3c-0.5-0.9-1.1-1.5-2-2c-0.8-0.5-1.8-0.7-2.8-0.7s-2,0.2-2.8,0.7c-0.8,0.5-1.5,1.2-2,2
		c-0.5,0.9-0.7,1.9-0.7,3s0.2,2.1,0.7,3c0.5,0.9,1.1,1.5,2,2c0.8,0.5,1.8,0.7,2.8,0.7S117.8,45,118.6,44.5z"/>
	<path class="st0" d="M134.5,33.4c1,0.6,1.8,1.4,2.4,2.5c0.6,1,0.9,2.2,0.9,3.6c0,1.3-0.3,2.5-0.9,3.6c-0.6,1.1-1.4,1.9-2.4,2.4
		c-1,0.6-2.2,0.9-3.4,0.9c-1.2,0-2.3-0.3-3.3-0.8c-1-0.6-1.7-1.4-2.3-2.4v8.2h-1.3V32.7h1.3v3.2c0.5-1,1.3-1.9,2.3-2.4
		c1-0.6,2.1-0.9,3.3-0.9C132.3,32.6,133.4,32.9,134.5,33.4z M133.8,44.5c0.8-0.5,1.5-1.2,2-2c0.5-0.9,0.7-1.9,0.7-3s-0.2-2.1-0.7-3
		c-0.5-0.9-1.1-1.5-2-2c-0.8-0.5-1.8-0.7-2.8-0.7c-1,0-2,0.2-2.8,0.7c-0.8,0.5-1.5,1.2-2,2c-0.5,0.9-0.7,1.9-0.7,3s0.2,2.1,0.7,3
		c0.5,0.9,1.1,1.5,2,2c0.8,0.5,1.8,0.7,2.8,0.7C132,45.2,132.9,45,133.8,44.5z"/>
	<path class="st0" d="M160.2,34c1,1,1.4,2.4,1.4,4.3v7.9h-1.3v-7.8c0-1.5-0.4-2.7-1.1-3.5c-0.7-0.8-1.8-1.2-3.1-1.2
		c-1.5,0-2.7,0.5-3.6,1.4c-0.9,1-1.3,2.2-1.3,3.9v7.2h-1.3v-7.8c0-1.5-0.4-2.7-1.1-3.5c-0.7-0.8-1.8-1.2-3.1-1.2
		c-1.5,0-2.7,0.5-3.6,1.4c-0.9,1-1.3,2.2-1.3,3.9v7.2h-1.3V32.7h1.3v2.9c0.5-1,1.1-1.7,2-2.2c0.9-0.5,2-0.8,3.2-0.8s2.3,0.3,3.1,0.8
		c0.9,0.6,1.5,1.4,1.8,2.4c0.5-1,1.2-1.8,2.1-2.4c1-0.6,2.1-0.9,3.4-0.9C158,32.6,159.3,33.1,160.2,34z"/>
	<path class="st0" d="M176.1,39.8h-11.7c0,1.1,0.3,2,0.8,2.8c0.5,0.8,1.2,1.5,2,1.9c0.9,0.5,1.8,0.7,2.9,0.7c0.9,0,1.7-0.2,2.5-0.5
		c0.8-0.3,1.4-0.8,1.9-1.4l0.8,0.9c-0.6,0.7-1.3,1.3-2.2,1.6c-0.9,0.4-1.9,0.6-2.9,0.6c-1.4,0-2.6-0.3-3.6-0.9
		c-1.1-0.6-1.9-1.4-2.5-2.4c-0.6-1-0.9-2.2-0.9-3.6c0-1.3,0.3-2.5,0.8-3.6c0.6-1.1,1.3-1.9,2.3-2.5c1-0.6,2.1-0.9,3.3-0.9
		c1.2,0,2.3,0.3,3.3,0.9c1,0.6,1.8,1.4,2.3,2.4c0.6,1,0.8,2.2,0.8,3.5L176.1,39.8z M167.1,34.3c-0.8,0.4-1.4,1-1.8,1.8
		c-0.5,0.8-0.7,1.6-0.8,2.6h10.4c-0.1-1-0.3-1.8-0.8-2.6c-0.5-0.8-1.1-1.4-1.9-1.8c-0.8-0.4-1.6-0.7-2.6-0.7
		C168.7,33.7,167.9,33.9,167.1,34.3z"/>
	<path class="st0" d="M188.4,34c1,1,1.5,2.4,1.5,4.3v7.9h-1.3v-7.8c0-1.5-0.4-2.7-1.2-3.5c-0.8-0.8-1.9-1.2-3.2-1.2
		c-1.6,0-2.9,0.5-3.8,1.4c-0.9,1-1.4,2.2-1.4,3.9v7.2h-1.3V32.7h1.3v2.9c0.5-1,1.2-1.7,2.1-2.2c0.9-0.5,2-0.8,3.3-0.8
		C186.1,32.6,187.4,33.1,188.4,34z"/>
	<path class="st0" d="M198.6,45.4c-0.3,0.3-0.7,0.6-1.2,0.7c-0.5,0.2-1,0.2-1.6,0.2c-1.2,0-2.1-0.3-2.7-1c-0.6-0.7-1-1.6-1-2.7v-8.9
		v-1.1v-3h1.3v3h4.3v1.1h-4.3v8.8c0,0.9,0.2,1.6,0.6,2c0.4,0.5,1.1,0.7,1.9,0.7c0.9,0,1.6-0.3,2.1-0.8L198.6,45.4z"/>
	<g>
		<path class="st0" d="M68.3,8.1c-0.9,0-1.8,0.2-2.6,0.6c-0.8,0.4-1.4,1-1.9,1.7c-0.4-0.7-1-1.3-1.7-1.7c-0.7-0.4-1.5-0.6-2.4-0.6
			c-0.8,0-1.5,0.2-2.2,0.5c-0.7,0.3-1.2,0.8-1.7,1.4V8.3h-3.4v0h-0.5l-2.4,3.1h2.9v10.9H56v-7c0-1.2,0.2-2.1,0.7-2.7
			c0.5-0.6,1.2-0.9,2-0.9c1.6,0,2.4,1.1,2.4,3.3v7.4h3.6v-7c0-1.2,0.2-2.1,0.7-2.7c0.5-0.6,1.2-0.9,2-0.9c0.8,0,1.3,0.3,1.7,0.8
			c0.4,0.5,0.6,1.4,0.6,2.5v7.4h3.6v-8c0-2.1-0.5-3.6-1.4-4.6C71.1,8.6,69.8,8.1,68.3,8.1z"/>
		<polygon class="st0" points="99.5,8.3 95.9,17.8 92.5,8.3 88.7,8.3 94,22.3 97.7,22.3 102.9,8.3 		"/>
		<path class="st0" d="M112.4,9c-1-0.6-2.1-0.9-3.3-0.9c-1.2,0-2.4,0.3-3.4,0.9c-1,0.6-1.8,1.5-2.4,2.6c-0.6,1.1-0.9,2.3-0.9,3.7
			c0,1.4,0.3,2.6,0.9,3.7c0.6,1.1,1.4,1.9,2.5,2.6c1.1,0.6,2.3,0.9,3.7,0.9c2.2,0,4-0.8,5.1-2.3l-1.9-2.3c-0.4,0.5-0.9,0.8-1.4,1
			c-0.5,0.2-1.1,0.3-1.7,0.3c-0.9,0-1.7-0.3-2.4-0.8c-0.6-0.5-1-1.2-1.2-2.1h9.4c0-0.7,0.1-1,0.1-1.1c0-1.5-0.3-2.7-0.8-3.8
			C114.1,10.4,113.4,9.6,112.4,9z M106,14.1c0.1-0.9,0.5-1.6,1-2.1c0.6-0.5,1.2-0.8,2.1-0.8c0.8,0,1.5,0.3,2,0.8s0.9,1.2,1,2.1H106z
			"/>
		<path class="st0" d="M120.7,10.1V8.3h-3.4v14h3.6v-6.6c0-1.3,0.3-2.3,0.9-2.9c0.6-0.6,1.4-1,2.4-1c0.1,0,0.4,0,0.8,0.1V8.1
			c-1,0-1.8,0.2-2.5,0.5C121.7,8.9,121.1,9.5,120.7,10.1z"/>
		<path class="st0" d="M135.8,15.6c-0.5-0.6-1-1-1.7-1.2c-0.6-0.2-1.5-0.4-2.5-0.6c-0.9-0.2-1.6-0.3-2-0.5c-0.4-0.2-0.6-0.5-0.6-0.9
			c0-0.4,0.2-0.7,0.6-0.9c0.4-0.2,1-0.4,1.7-0.4c1.3,0,2.5,0.3,3.6,1l1.2-2.9c-0.6-0.4-1.3-0.7-2.2-0.9c-0.9-0.2-1.7-0.3-2.6-0.3
			c-1.2,0-2.2,0.2-3.1,0.6c-0.9,0.4-1.5,0.9-2,1.6c-0.5,0.7-0.7,1.5-0.7,2.4c0,1.1,0.2,1.9,0.7,2.4c0.5,0.6,1.1,1,1.7,1.2
			c0.7,0.2,1.5,0.4,2.5,0.6c0.9,0.1,1.5,0.3,1.9,0.4c0.4,0.2,0.6,0.5,0.6,0.9c0,0.8-0.8,1.3-2.3,1.3c-0.8,0-1.5-0.1-2.3-0.4
			c-0.8-0.3-1.5-0.6-2-1l-1.2,2.9c0.6,0.4,1.4,0.8,2.4,1.1c1,0.3,2,0.4,3,0.4c1.2,0,2.3-0.2,3.2-0.6c0.9-0.4,1.6-0.9,2-1.6
			c0.5-0.7,0.7-1.4,0.7-2.3C136.5,17,136.3,16.2,135.8,15.6z"/>
		<path class="st0" d="M85.5,9c-1.1-0.6-2.3-0.9-3.7-0.9c-1.4,0-2.6,0.3-3.7,0.9c-1.1,0.6-1.9,1.5-2.6,2.6s-0.9,2.3-0.9,3.7
			c0,1.4,0.3,2.6,0.9,3.7c0.6,1.1,1.5,1.9,2.6,2.6c1.1,0.6,2.3,0.9,3.7,0.9c1.4,0,2.6-0.3,3.7-0.9c1.1-0.6,1.9-1.5,2.5-2.6
			c0.6-1.1,0.9-2.3,0.9-3.7c0-1.4-0.3-2.6-0.9-3.7C87.4,10.5,86.5,9.6,85.5,9z M84.2,18.1c-0.6,0.7-1.4,1.1-2.4,1.1
			c-1,0-1.8-0.4-2.4-1.1c-0.6-0.7-0.9-1.6-0.9-2.8c0-1.2,0.3-2.1,0.9-2.8c0.6-0.7,1.4-1.1,2.4-1.1c1,0,1.8,0.4,2.4,1.1
			c0.6,0.7,0.9,1.6,0.9,2.8C85.1,16.5,84.8,17.4,84.2,18.1z"/>
	</g>
	<polygon class="st0" points="21.4,33.7 21.4,54 5.8,46.8 5.8,38.4 15.6,42.4 	"/>
	<polygon class="st1" points="21.4,33.7 21.4,54 36.6,47.3 36.6,38.2 26.2,42.4 	"/>
	<polygon class="st1" points="21.4,33.7 15.3,40.7 0,34.4 6.7,29.2 	"/>
	<polygon class="st1" points="21.4,33.7 36.1,29.2 42.9,34.5 26.7,40.7 	"/>
	<polygon class="st1" points="6.5,28.8 1.4,25.1 21.4,23.4 21.4,26.1 	"/>
	<polygon class="st1" points="21.4,26.1 36,28.5 41.2,24.7 21.4,23.4 	"/>
	<g>
		<circle class="st0" cx="21.4" cy="10.6" r="3.4"/>
		<path class="st0" d="M32,10.5C32,4.7,27.3,0,21.4,0c-5.9,0-10.6,4.7-10.6,10.5c0,1.3,0.3,2.6,0.7,3.8l0,0c0,0,1.4,4.6,9.9,15.1
			c8.5-10.5,9.9-15.1,9.9-15.1l0,0C31.8,13.1,32,11.8,32,10.5z M26.8,11.3c0,0.2,0.1,0.4,0.2,0.5l0.9,0.5c0.1,0,0.1,0.1,0.2,0.2
			c0,0.1,0,0.1,0,0.2c-0.3,1-0.8,1.9-1.5,2.6c-0.1,0.1-0.1,0.1-0.2,0.1c-0.1,0-0.2,0-0.2,0l-0.9-0.5c-0.2-0.1-0.4-0.1-0.6,0
			c-0.3,0.3-0.7,0.5-1.1,0.6c-0.2,0.1-0.3,0.3-0.3,0.5v1c0,0.1,0,0.1-0.1,0.2c0,0.1-0.1,0.1-0.2,0.1c-1,0.2-2.1,0.2-3.1,0
			c-0.1,0-0.1-0.1-0.2-0.1c0-0.1-0.1-0.1-0.1-0.2v-1c0-0.2-0.1-0.4-0.3-0.5c-0.4-0.2-0.8-0.4-1.1-0.6c-0.2-0.1-0.4-0.1-0.6,0
			l-0.9,0.5c-0.1,0-0.2,0-0.2,0c-0.1,0-0.1-0.1-0.2-0.1c-0.7-0.8-1.2-1.7-1.5-2.6c0-0.1,0-0.2,0-0.2c0-0.1,0.1-0.1,0.2-0.2l0.9-0.5
			c0.2-0.1,0.3-0.3,0.2-0.5c0-0.4,0-0.9,0-1.3c0-0.2-0.1-0.4-0.2-0.5l-0.9-0.5c-0.1,0-0.1-0.1-0.2-0.2c0-0.1,0-0.1,0-0.2
			c0.3-1,0.8-1.9,1.5-2.6c0.1-0.1,0.1-0.1,0.2-0.1c0.1,0,0.2,0,0.2,0l0.9,0.5c0.2,0.1,0.4,0.1,0.6,0c0.3-0.3,0.7-0.5,1.1-0.6
			c0.2-0.1,0.3-0.3,0.3-0.5v-1c0-0.1,0-0.1,0.1-0.2c0-0.1,0.1-0.1,0.2-0.1c1-0.2,2.1-0.2,3.1,0c0.1,0,0.1,0.1,0.2,0.1
			c0,0.1,0.1,0.1,0.1,0.2v1c0,0.2,0.1,0.4,0.3,0.5c0.4,0.2,0.8,0.4,1.1,0.6c0.2,0.1,0.4,0.1,0.6,0l0.9-0.5c0.1,0,0.2,0,0.2,0
			c0.1,0,0.1,0.1,0.2,0.1c0.7,0.8,1.2,1.7,1.5,2.6c0,0.1,0,0.2,0,0.2c0,0.1-0.1,0.1-0.2,0.2L27,9.5c-0.2,0.1-0.3,0.3-0.2,0.5
			C26.8,10.4,26.8,10.8,26.8,11.3z"/>
	</g>
</g>
</svg>
